<svg width="46" height="46" viewBox="0 0 46 46" fill="none" xmlns="http://www.w3.org/2000/svg">
<g clip-path="url(#clip0_1_53)">
<path d="M28.4356 22.9454L32.5674 20.9H46.3333L44.2879 16.8091H36.1674L41.056 10.325L39.031 6.23408L30.7265 17.2182L26.5947 19.2841L27.4129 14.7636L35.7583 3.75908L31.2788 2.9409L23.8333 12.7182L16.4697 2.89999L11.9697 3.71818L20.2742 14.7636L21.0924 19.2841L17.3288 17.4023L17.0015 17.2386L8.69695 6.17272L6.65149 10.2636L11.5606 16.8091H3.37877L1.33331 20.9H15.181L19.231 22.9454L15.0992 24.9909H1.33331L3.37877 29.0818H11.4992L6.61059 35.5659L8.63559 39.6568L16.9401 28.6727L21.0719 26.6068L20.2538 31.1273L11.9083 42.1318L16.3879 42.9704L23.8333 33.1727L31.1969 42.9909L35.6969 42.1727L27.3924 31.1273L26.5742 26.6068L30.6651 28.6523L38.9697 39.7182L41.0151 35.6273L36.106 29.0818H44.2879L46.3333 24.9909H32.4856" fill="#402909"/>
</g>
<defs>
<clipPath id="clip0_1_53">
<rect width="45" height="45" fill="white" transform="translate(0.333313 0.899994)"/>
</clipPath>
</defs>
</svg>
